<svg id="Capa_1" enable-background="new 0 0 512 512" height="512" viewBox="0 0 512 512" width="512" xmlns="http://www.w3.org/2000/svg"><g><path d="m497 32h-46v-17c0-8.284-6.716-15-15-15s-15 6.716-15 15v17h-60v-17c0-8.284-6.716-15-15-15s-15 6.716-15 15v17h-60v-17c0-8.284-6.716-15-15-15s-15 6.716-15 15v17h-60v-17c0-8.284-6.716-15-15-15s-15 6.716-15 15v17h-60v-17c0-8.284-6.716-15-15-15s-15 6.716-15 15v17h-46c-8.284 0-15 6.716-15 15v450c0 8.284 6.716 15 15 15h482c8.284 0 15-6.716 15-15v-450c0-8.284-6.716-15-15-15zm-436 30v15c0 8.284 6.716 15 15 15s15-6.716 15-15v-15h60v15c0 8.284 6.716 15 15 15s15-6.716 15-15v-15h60v15c0 8.284 6.716 15 15 15s15-6.716 15-15v-15h60v15c0 8.284 6.716 15 15 15s15-6.716 15-15v-15h60v15c0 8.284 6.716 15 15 15s15-6.716 15-15v-15h31v60h-452v-60zm-31 420v-330h452v330z"/><path d="m166 212h-60c-8.284 0-15 6.716-15 15v60c0 8.284 6.716 15 15 15h60c8.284 0 15-6.716 15-15v-60c0-8.284-6.716-15-15-15zm-15 60h-30v-30h30z"/><path d="m406 212h-60c-8.284 0-15 6.716-15 15v60c0 8.284 6.716 15 15 15h60c8.284 0 15-6.716 15-15v-60c0-8.284-6.716-15-15-15zm-15 60h-30v-30h30z"/><path d="m286 331h-60c-8.284 0-15 6.716-15 15v60c0 8.284 6.716 15 15 15h60c8.284 0 15-6.716 15-15v-60c0-8.284-6.716-15-15-15zm-15 60h-30v-30h30z"/><path d="m286 212h-60c-8.284 0-15 6.716-15 15v60c0 8.284 6.716 15 15 15h60c8.284 0 15-6.716 15-15v-60c0-8.284-6.716-15-15-15zm-15 60h-30v-30h30z"/><path d="m406 331h-60c-8.284 0-15 6.716-15 15v60c0 8.284 6.716 15 15 15h60c8.284 0 15-6.716 15-15v-60c0-8.284-6.716-15-15-15zm-15 60h-30v-30h30z"/><path d="m175.462 345.161c-6.428-5.226-15.875-4.25-21.101 2.176l-30.498 37.513-8.352-6.849c-6.406-5.255-15.857-4.318-21.11 2.087-5.253 6.406-4.318 15.857 2.088 21.11l20 16.4c6.438 5.28 15.922 4.295 21.15-2.136l40-49.2c5.226-6.428 4.251-15.875-2.177-21.101z"/></g></svg>