<svg id="Capa_1" enable-background="new 0 0 512 512" height="512" viewBox="0 0 512 512" width="512" xmlns="http://www.w3.org/2000/svg"><g><path d="m242 42.894v-20.394c0-12.406-10.093-22.5-22.5-22.5h-137c-12.407 0-22.5 10.094-22.5 22.5v20.394l-57.803 57.802c-1.407 1.408-2.197 3.315-2.197 5.304v398.5c0 4.143 3.358 7.5 7.5 7.5h287c4.142 0 7.5-3.357 7.5-7.5v-398.5c0-1.989-.79-3.896-2.197-5.304zm34.393 55.606h-83.787l41.894-41.893zm-201.393-76c0-4.136 3.364-7.5 7.5-7.5h137c4.136 0 7.5 3.364 7.5 7.5v16h-152zm-4.393 31h145.786l-45 45h-145.786zm96.393 443.5h-152v-184.418c40.618-1.774 60.964-17.927 80.666-33.585 18.473-14.681 35.988-28.599 71.334-30.319zm120 0h-105v-256c0-4.143-3.358-7.5-7.5-7.5-45.693 0-67.285 17.159-88.166 33.753-18.472 14.68-35.989 28.597-71.334 30.317v-184.07h152v97.5c0 4.143 3.358 7.5 7.5 7.5s7.5-3.357 7.5-7.5v-97.5h105z"/><path d="m453.391 256 56.412-56.412c2.929-2.929 2.929-7.677 0-10.607l-28.284-28.284c-2.929-2.929-7.677-2.929-10.607 0l-56.412 56.413-56.412-56.412c-2.929-2.929-7.677-2.929-10.607 0l-28.284 28.284c-2.929 2.929-2.929 7.677 0 10.607l56.412 56.411-56.412 56.412c-2.929 2.929-2.929 7.677 0 10.607l28.284 28.284c2.929 2.929 7.677 2.929 10.607 0l56.412-56.412 56.412 56.412c2.929 2.929 7.677 2.929 10.607 0l28.284-28.284c2.929-2.929 2.929-7.677 0-10.607zm22.825 79.394-56.412-56.412c-2.929-2.929-7.677-2.929-10.607 0l-56.412 56.412-17.678-17.678 56.412-56.412c2.929-2.929 2.929-7.677 0-10.607l-56.412-56.412 17.678-17.678 56.412 56.413c2.929 2.929 7.677 2.929 10.607 0l56.412-56.413 17.678 17.678-56.412 56.412c-2.929 2.929-2.929 7.677 0 10.607l56.412 56.412z"/></g></svg>